<svg data-v-423bf9ae="" xmlns="http://www.w3.org/2000/svg" viewBox="0 0 429.20956440663093 163" class="iconAbove"><!----><!----><!----><g data-v-423bf9ae="" id="deed05a5-375d-4503-b43a-97a6e9244b97" fill="white" transform="matrix(5.5147058243466915,0,0,5.5147058243466915,-3.91544022170703,82.92646855193232)"><path d="M0.71 14.35L7.53 14.35L7.53 12.17L7.06 12.17L7.06 13.99L2.42 13.99L2.42 9.41L5.88 9.41L5.88 10.58L6.31 10.58L6.31 7.87L5.88 7.87L5.88 9.04L2.42 9.04L2.42 4.94L6.94 4.94L6.94 6.72L7.42 6.72L7.42 4.58L0.71 4.58L0.71 4.93L1.88 4.93L1.88 14L0.71 14ZM8.69 14.35L11.38 14.35L11.38 14L9.97 14L11.00 11.10L15.33 11.10L16.37 14L14.95 14L14.95 14.35L17.77 14.35L17.77 14L16.95 14L13.55 4.58L12.91 4.58L9.51 14L8.69 14ZM13.13 5.08L13.19 5.08L15.20 10.74L11.13 10.74ZM18.79 14.35L25.61 14.35L25.61 12.17L25.13 12.17L25.13 13.99L20.50 13.99L20.50 9.41L23.95 9.41L23.95 10.58L24.39 10.58L24.39 7.87L23.95 7.87L23.95 9.04L20.50 9.04L20.50 4.94L25.02 4.94L25.02 6.72L25.49 6.72L25.49 4.58L18.79 4.58L18.79 4.93L19.95 4.93L19.95 14L18.79 14ZM27.03 14.35L29.88 14.35L29.88 14L28.71 14L28.71 9.25C28.71 8.05 29.68 7.46 30.76 7.46C32.06 7.46 32.75 8.20 32.75 9.83L32.75 14L31.58 14L31.58 14.35L34.43 14.35L34.43 14L33.26 14L33.26 9.25C33.26 8.05 34.23 7.46 35.31 7.46C36.61 7.46 37.30 8.20 37.30 9.83L37.30 14L36.13 14L36.13 14.35L38.98 14.35L38.98 14L37.81 14L37.81 9.77C37.81 7.98 37.06 7.07 35.45 7.07C34.16 7.07 33.45 7.76 33.15 8.64L33.11 8.64C32.82 7.56 32.09 7.07 30.90 7.07C29.65 7.07 28.99 7.70 28.76 8.37L28.70 8.37L28.70 7.13L27.03 7.34L27.03 7.59L28.20 7.69L28.20 14L27.03 14ZM42.43 14.52C43.81 14.52 44.45 13.79 44.70 13.15L44.74 13.15L44.74 13.73C44.74 14.27 44.97 14.46 45.49 14.46C45.77 14.46 46.17 14.39 46.35 14.31L46.35 14.04L45.23 14.04L45.23 9.25C45.23 7.84 44.31 7.07 42.85 7.07C41.48 7.07 40.50 7.67 40.50 8.29C40.50 8.60 40.68 8.76 40.96 8.76C41.26 8.76 41.44 8.60 41.44 8.30C41.44 8.06 41.29 7.90 41.09 7.81L41.09 7.78C41.38 7.57 41.92 7.42 42.76 7.42C44.02 7.42 44.72 8.06 44.72 9.32L44.72 10.56L43.29 10.56C41.06 10.56 40.19 11.24 40.19 12.61C40.19 13.76 41.03 14.52 42.43 14.52ZM42.56 14.14C41.41 14.14 40.75 13.55 40.75 12.75L40.75 12.43C40.75 11.42 41.40 10.86 43.39 10.86L44.72 10.86L44.72 12.33C44.72 13.37 43.79 14.14 42.56 14.14ZM48.83 5.11C49.14 5.11 49.31 4.90 49.31 4.66L49.31 4.62C49.31 4.38 49.14 4.17 48.85 4.17C48.54 4.17 48.37 4.38 48.37 4.62L48.37 4.66C48.37 4.90 48.54 5.11 48.83 5.11ZM47.42 14.35L50.26 14.35L50.26 14L49.10 14L49.10 7.13L47.42 7.34L47.42 7.59L48.58 7.69L48.58 14L47.42 14ZM51.18 14.35L54.03 14.35L54.03 14L52.86 14L52.86 3.64L51.18 3.85L51.18 4.10L52.35 4.20L52.35 14L51.18 14ZM55.17 14.35L58.97 14.35C61.73 14.35 63.20 12.71 63.20 9.46C63.20 6.22 61.73 4.58 58.97 4.58L55.17 4.58L55.17 4.93L56.34 4.93L56.34 14L55.17 14ZM56.88 4.94L58.95 4.94C61.42 4.94 62.59 6.52 62.59 8.92L62.59 10.01C62.59 12.40 61.42 13.99 58.95 13.99L56.88 13.99ZM67.93 14.52C69.37 14.52 70.21 13.62 70.60 12.82L70.34 12.67C69.92 13.43 69.19 14.10 67.97 14.10C66.46 14.10 65.41 13.05 65.41 11.07L65.41 10.56L70.76 10.56L70.76 10.37C70.76 8.44 69.66 7.07 67.93 7.07C66.09 7.07 64.83 8.36 64.83 10.79C64.83 13.23 66.09 14.52 67.93 14.52ZM65.41 10.22C65.41 8.57 66.39 7.42 67.93 7.42C69.38 7.42 70.20 8.60 70.20 10.19L70.20 10.22ZM74.80 14.35L75.28 14.35L77.84 7.59L78.54 7.59L78.54 7.24L76.06 7.24L76.06 7.59L77.42 7.59L75.14 13.78L75.10 13.78L72.80 7.59L74.14 7.59L74.14 7.24L71.54 7.24L71.54 7.59L72.24 7.59Z"></path></g><!----><g data-v-423bf9ae="" id="22d4e6e5-f5af-4c96-833d-b8683d9eb8d0" transform="matrix(2.8125,0,0,2.8125,170,0)" stroke="none" fill="white"><path d="M16 32c8.837 0 16-7.163 16-16S24.837 0 16 0 0 7.163 0 16s7.163 16 16 16zM14.817 6.421h2v8.886h8.887v2H14.817V6.421zm-5.959.437h2v14.283h14.283v2H8.858V6.858z"></path></g><!----></svg>