<svg data-v-423bf9ae="" xmlns="http://www.w3.org/2000/svg" viewBox="0 0 367 90" class="iconLeft"><!----><!----><!----><g data-v-423bf9ae="" id="43d98959-c0d1-4701-9a40-8c4f672e51d0" fill="white" transform="matrix(6.2695920516383215,0,0,6.2695920516383215,106.11285791345537,-6.880877512102124)"><path d="M7.17 10.36L7.97 10.36L7.87 12.85L0.62 12.85L0.62 12.28L1.90 12.12L1.90 12.12Q1.93 11.24 1.93 10.34L1.93 10.34L1.93 10.34Q1.93 9.44 1.93 8.51L1.93 8.51L1.93 7.83L1.93 7.83Q1.93 6.92 1.93 6.02L1.93 6.02L1.93 6.02Q1.93 5.12 1.90 4.21L1.90 4.21L0.62 4.06L0.62 3.49L7.59 3.49L7.69 5.98L6.89 5.98L6.58 4.20L3.28 4.20L3.28 4.20Q3.25 5.08 3.25 5.96L3.25 5.96L3.25 5.96Q3.25 6.85 3.25 7.74L3.25 7.74L5.33 7.74L5.53 6.40L6.16 6.40L6.16 9.72L5.53 9.72L5.35 8.40L3.25 8.40L3.25 8.40Q3.25 9.41 3.25 10.32L3.25 10.32L3.25 10.32Q3.25 11.24 3.28 12.15L3.28 12.15L6.86 12.15L7.17 10.36ZM11.40 9.14L14.17 9.14L12.80 5.10L11.40 9.14ZM16.56 12.15L17.61 12.28L17.61 12.85L13.80 12.85L13.80 12.28L15.18 12.11L14.39 9.80L11.17 9.80L10.39 12.10L11.75 12.28L11.75 12.85L8.53 12.85L8.53 12.28L9.72 12.10L12.71 3.49L13.55 3.49L16.56 12.15ZM20.89 12.19L22.13 12.19L22.13 12.19Q22.86 12.19 23.46 11.94L23.46 11.94L23.46 11.94Q24.05 11.68 24.47 11.17L24.47 11.17L24.47 11.17Q24.89 10.65 25.12 9.91L25.12 9.91L25.12 9.91Q25.35 9.16 25.35 8.18L25.35 8.18L25.35 8.18Q25.35 7.20 25.12 6.44L25.12 6.44L25.12 6.44Q24.89 5.68 24.46 5.17L24.46 5.17L24.46 5.17Q24.04 4.66 23.44 4.40L23.44 4.40L23.44 4.40Q22.85 4.14 22.12 4.14L22.12 4.14L20.89 4.14L20.89 4.14Q20.86 5.05 20.86 5.97L20.86 5.97L20.86 5.97Q20.86 6.89 20.86 7.83L20.86 7.83L20.86 8.34L20.86 8.34Q20.86 9.38 20.86 10.32L20.86 10.32L20.86 10.32Q20.86 11.27 20.89 12.19L20.89 12.19ZM18.23 3.49L22.37 3.49L22.37 3.49Q23.34 3.49 24.16 3.79L24.16 3.79L24.16 3.79Q24.99 4.10 25.59 4.69L25.59 4.69L25.59 4.69Q26.19 5.28 26.54 6.15L26.54 6.15L26.54 6.15Q26.88 7.03 26.88 8.16L26.88 8.16L26.88 8.16Q26.88 9.30 26.50 10.17L26.50 10.17L26.50 10.17Q26.12 11.05 25.47 11.64L25.47 11.64L25.47 11.64Q24.82 12.24 23.95 12.54L23.95 12.54L23.95 12.54Q23.07 12.85 22.09 12.85L22.09 12.85L18.23 12.85L18.23 12.28L19.52 12.12L19.52 12.12Q19.54 11.23 19.54 10.30L19.54 10.30L19.54 10.30Q19.54 9.37 19.54 8.34L19.54 8.34L19.54 7.83L19.54 7.83Q19.54 6.92 19.54 6.02L19.54 6.02L19.54 6.02Q19.54 5.12 19.52 4.21L19.52 4.21L18.23 4.06L18.23 3.49ZM29.48 8.86L32.03 8.86L32.03 8.86Q32.54 8.86 32.70 8.65L32.70 8.65L32.70 8.65Q32.87 8.44 32.87 8.13L32.87 8.13L32.87 8.13Q32.87 7.84 32.75 7.57L32.75 7.57L32.75 7.57Q32.63 7.29 32.43 7.08L32.43 7.08L32.43 7.08Q32.23 6.87 31.95 6.75L31.95 6.75L31.95 6.75Q31.68 6.62 31.36 6.62L31.36 6.62L31.36 6.62Q31.07 6.62 30.75 6.74L30.75 6.74L30.75 6.74Q30.44 6.86 30.18 7.13L30.18 7.13L30.18 7.13Q29.92 7.41 29.73 7.83L29.73 7.83L29.73 7.83Q29.54 8.26 29.48 8.86L29.48 8.86ZM33.94 9.46L29.46 9.46L29.46 9.46Q29.48 10.77 30.10 11.47L30.10 11.47L30.10 11.47Q30.72 12.17 31.72 12.17L31.72 12.17L31.72 12.17Q32.40 12.17 32.84 11.89L32.84 11.89L32.84 11.89Q33.29 11.61 33.67 11.16L33.67 11.16L34.01 11.42L34.01 11.42Q33.64 12.18 32.96 12.62L32.96 12.62L32.96 12.62Q32.28 13.06 31.32 13.06L31.32 13.06L31.32 13.06Q30.60 13.06 30.03 12.82L30.03 12.82L30.03 12.82Q29.46 12.59 29.05 12.13L29.05 12.13L29.05 12.13Q28.64 11.68 28.42 11.03L28.42 11.03L28.42 11.03Q28.20 10.39 28.20 9.59L28.20 9.59L28.20 9.59Q28.20 8.79 28.45 8.13L28.45 8.13L28.45 8.13Q28.70 7.46 29.14 6.99L29.14 6.99L29.14 6.99Q29.58 6.51 30.17 6.24L30.17 6.24L30.17 6.24Q30.76 5.98 31.42 5.98L31.42 5.98L31.42 5.98Q31.96 5.98 32.44 6.16L32.44 6.16L32.44 6.16Q32.93 6.34 33.28 6.69L33.28 6.69L33.28 6.69Q33.63 7.04 33.83 7.55L33.83 7.55L33.83 7.55Q34.03 8.05 34.03 8.68L34.03 8.68L34.03 8.68Q34.03 8.92 34.01 9.11L34.01 9.11L34.01 9.11Q33.98 9.31 33.94 9.46L33.94 9.46ZM41.50 6.23L41.50 6.80L40.74 6.96L38.44 12.99L37.86 12.99L35.32 6.92L34.55 6.80L34.55 6.23L37.94 6.23L37.94 6.80L36.71 6.96L38.42 11.47L39.98 6.97L38.85 6.80L38.85 6.23L41.50 6.23Z"></path></g><!----><g data-v-423bf9ae="" id="4f715463-cd22-4705-bbc2-280d6e1226c2" transform="matrix(2.8125,0,0,2.8125,0,0)" stroke="none" fill="white"><path d="M16 32c8.837 0 16-7.163 16-16S24.837 0 16 0 0 7.163 0 16s7.163 16 16 16zM14.817 6.421h2v8.886h8.887v2H14.817V6.421zm-5.959.437h2v14.283h14.283v2H8.858V6.858z"></path></g><!----></svg>