<svg data-v-423bf9ae="" xmlns="http://www.w3.org/2000/svg" viewBox="0 0 211.84321999224534 60" class="font"><!----><!----><!----><g data-v-423bf9ae="" id="66fa9aa6-f4a6-492f-816a-486a4f0dbbfc" fill="white" transform="matrix(6.355931843809977,0,0,6.355931843809977,-5.974573076593245,-7.627118277227844)"><path d="M0.94 7.18L0.94 7.18L0.94 7.18Q0.94 5.57 1.60 4.67L1.60 4.67L1.60 4.67Q2.27 3.77 3.54 3.77L3.54 3.77L3.54 3.77Q4.82 3.77 5.44 4.61L5.44 4.61L5.44 4.61Q6.06 5.45 6.06 6.85L6.06 6.85L6.02 7.55L1.74 7.55L1.74 7.55Q1.81 8.60 2.30 9.25L2.30 9.25L2.30 9.25Q2.79 9.90 3.65 9.90L3.65 9.90L3.65 9.90Q4.51 9.90 5.67 9.49L5.67 9.49L5.88 10.19L5.88 10.19Q4.75 10.63 3.75 10.63L3.75 10.63L3.75 10.63Q2.38 10.63 1.66 9.71L1.66 9.71L1.66 9.71Q0.94 8.79 0.94 7.18ZM3.60 4.48L3.60 4.48L3.60 4.48Q1.83 4.48 1.74 6.85L1.74 6.85L5.26 6.85L5.26 6.85Q5.26 4.48 3.60 4.48ZM10.05 9.90L10.05 9.90L10.05 9.90Q10.57 9.90 11.18 9.57L11.18 9.57L11.18 9.57Q11.79 9.24 12.07 8.96L12.07 8.96L12.07 7.29L12.07 7.29Q11.14 7.22 10.30 7.22L10.30 7.22L10.30 7.22Q9.46 7.22 9.04 7.58L9.04 7.58L9.04 7.58Q8.62 7.94 8.62 8.54L8.62 8.54L8.62 8.54Q8.62 9.90 10.05 9.90ZM10.04 10.63L10.04 10.63L10.04 10.63Q9.02 10.63 8.43 10.10L8.43 10.10L8.43 10.10Q7.84 9.58 7.84 8.61L7.84 8.61L7.84 8.61Q7.84 7.64 8.48 7.11L8.48 7.11L8.48 7.11Q9.13 6.57 10.19 6.57L10.19 6.57L10.19 6.57Q11.26 6.57 12.07 6.65L12.07 6.65L12.07 6.65Q12.07 5.40 11.76 4.95L11.76 4.95L11.76 4.95Q11.45 4.49 10.51 4.49L10.51 4.49L10.51 4.49Q9.58 4.49 8.30 4.94L8.30 4.94L8.09 4.24L8.09 4.24Q9.39 3.77 10.44 3.77L10.44 3.77L10.44 3.77Q11.83 3.77 12.32 4.38L12.32 4.38L12.32 4.38Q12.81 5.00 12.81 6.54L12.81 6.54L12.81 9.48L12.92 10.54L12.21 10.61L12.07 9.77L12.07 9.77Q11.75 10.05 11.16 10.34L11.16 10.34L11.16 10.34Q10.57 10.63 10.04 10.63ZM19.25 1.20L19.99 1.20L19.99 9.34L20.13 10.56L19.42 10.64L19.28 9.90L19.28 9.90Q18.23 10.63 17.35 10.63L17.35 10.63L17.35 10.63Q16.10 10.63 15.41 9.70L15.41 9.70L15.41 9.70Q14.71 8.78 14.71 7.19L14.71 7.19L14.71 7.19Q14.71 5.60 15.48 4.68L15.48 4.68L15.48 4.68Q16.25 3.77 17.58 3.77L17.58 3.77L17.58 3.77Q18.37 3.77 19.25 4.14L19.25 4.14L19.25 1.20ZM15.51 7.17L15.51 7.17L15.51 7.17Q15.51 8.40 16.00 9.15L16.00 9.15L16.00 9.15Q16.48 9.90 17.39 9.90L17.39 9.90L17.39 9.90Q18.30 9.90 19.25 9.10L19.25 9.10L19.25 4.90L19.25 4.90Q18.96 4.76 18.45 4.63L18.45 4.63L18.45 4.63Q17.93 4.49 17.61 4.49L17.61 4.49L17.61 4.49Q16.62 4.49 16.07 5.21L16.07 5.21L16.07 5.21Q15.51 5.94 15.51 7.17ZM21.94 7.18L21.94 7.18L21.94 7.18Q21.94 5.57 22.60 4.67L22.60 4.67L22.60 4.67Q23.27 3.77 24.54 3.77L24.54 3.77L24.54 3.77Q25.82 3.77 26.44 4.61L26.44 4.61L26.44 4.61Q27.06 5.45 27.06 6.85L27.06 6.85L27.02 7.55L22.74 7.55L22.74 7.55Q22.81 8.60 23.30 9.25L23.30 9.25L23.30 9.25Q23.79 9.90 24.65 9.90L24.65 9.90L24.65 9.90Q25.51 9.90 26.67 9.49L26.67 9.49L26.88 10.19L26.88 10.19Q25.75 10.63 24.75 10.63L24.75 10.63L24.75 10.63Q23.38 10.63 22.66 9.71L22.66 9.71L22.66 9.71Q21.94 8.79 21.94 7.18ZM24.60 4.48L24.60 4.48L24.60 4.48Q22.83 4.48 22.74 6.85L22.74 6.85L26.26 6.85L26.26 6.85Q26.26 4.48 24.60 4.48ZM30.84 10.50L28.74 3.85L29.58 3.85L31.42 9.83L31.67 9.83L33.43 3.85L34.27 3.85L32.24 10.50L30.84 10.50Z"></path></g><!----><!----></svg>